<?xml version="1.0" encoding="UTF-8" standalone="no"?>
<!DOCTYPE svg PUBLIC "-//W3C//DTD SVG 1.1//EN" "http://www.w3.org/Graphics/SVG/1.1/DTD/svg11.dtd">
<svg width="100%" height="100%" viewBox="0 0 155 159" version="1.1" xmlns="http://www.w3.org/2000/svg" xmlns:xlink="http://www.w3.org/1999/xlink" xml:space="preserve" xmlns:serif="http://www.serif.com/" style="fill-rule:evenodd;clip-rule:evenodd;stroke-linejoin:round;stroke-miterlimit:1.41421;">
    <g transform="matrix(1,0,0,1,-31.1982,0.271605)">
        <g transform="matrix(1,0,0,23.5207,0,-3572.85)">
            <path d="M185.213,151.891L185.305,151.893L185.373,151.896L185.406,151.901L185.428,151.907L185.449,151.914L185.468,151.921L185.487,151.927L185.505,151.934L185.521,151.941L185.537,151.948L185.552,151.954L185.565,151.961L185.578,151.968L185.589,151.975L185.6,151.981L185.609,151.988L185.618,151.995L185.625,152.002L185.632,152.008L185.637,152.015L185.641,152.022L185.644,152.029L185.647,152.035L185.648,152.042L185.648,152.049L185.647,152.056L185.645,152.062L185.641,152.069L185.637,152.076L185.632,152.083L185.625,152.089L185.618,152.096L185.609,152.103L185.6,152.11L185.589,152.117L185.577,152.123L185.564,152.13L185.55,152.137L185.535,152.144L185.519,152.15L185.502,152.157L185.483,152.164L185.463,152.171L185.443,152.178L185.421,152.184L185.398,152.191L185.374,152.198L185.349,152.205L185.322,152.211L185.295,152.218L185.266,152.225L185.237,152.232L185.206,152.239L185.174,152.245L185.141,152.252L185.106,152.259L185.071,152.266L185.034,152.273L184.997,152.279L184.958,152.286L184.917,152.293L184.876,152.3L184.834,152.306L184.79,152.313L184.745,152.32L184.699,152.327L184.652,152.334L184.604,152.34L184.554,152.347L184.504,152.354L184.452,152.361L184.399,152.368L184.344,152.374L184.289,152.381L184.232,152.388L184.174,152.395L184.115,152.402L184.055,152.409L183.994,152.415L183.931,152.422L183.867,152.429L183.802,152.436L183.735,152.443L183.668,152.449L183.599,152.456L183.529,152.463L183.457,152.47L183.385,152.477L183.311,152.483L183.236,152.49L183.16,152.497L183.082,152.504L183.003,152.511L182.923,152.518L182.842,152.524L182.76,152.531L182.676,152.538L182.591,152.545L182.504,152.552L182.417,152.558L182.328,152.565L182.238,152.572L182.146,152.579L182.054,152.586L181.96,152.593L181.865,152.599L181.768,152.606L181.67,152.613L181.571,152.62L181.471,152.627L181.369,152.634L181.266,152.64L181.162,152.647L181.056,152.654L180.949,152.661L180.841,152.668L180.731,152.675L180.62,152.681L180.508,152.688L180.395,152.695L180.28,152.702L180.164,152.709L180.046,152.716L179.927,152.722L179.807,152.729L179.686,152.736L179.563,152.743L179.439,152.75L179.313,152.757L179.186,152.763L179.145,152.766L179.185,152.772L179.221,152.778L179.256,152.784L179.29,152.79L179.322,152.796L179.353,152.802L179.382,152.808L179.41,152.814L179.437,152.82L179.462,152.826L179.485,152.833L179.507,152.839L179.528,152.845L179.547,152.851L179.564,152.858L179.58,152.864L179.594,152.87L179.607,152.876L179.619,152.883L179.629,152.889L179.637,152.895L179.644,152.902L179.65,152.908L179.653,152.915L179.656,152.921L179.656,152.928L179.656,152.934L179.653,152.941L179.65,152.947L179.644,152.954L179.637,152.96L179.629,152.967L179.618,152.973L179.607,152.98L179.594,152.987L179.579,152.993L179.562,153L179.544,153.007L179.525,153.014L179.504,153.02L179.481,153.027L179.457,153.034L179.431,153.041L179.403,153.048L179.374,153.054L179.343,153.061L179.311,153.068L179.277,153.075L179.242,153.082L179.204,153.089L179.166,153.096L179.125,153.103L179.083,153.11L179.039,153.117L178.994,153.124L178.947,153.131L178.898,153.138L178.848,153.145L178.796,153.153L178.743,153.16L178.687,153.167L178.63,153.174L178.572,153.181L178.512,153.189L178.45,153.196L178.386,153.203L178.321,153.211L178.254,153.218L178.185,153.225L178.115,153.233L178.043,153.24L177.969,153.248L177.894,153.255L177.817,153.263L177.738,153.27L177.657,153.278L177.575,153.285L177.491,153.293L177.405,153.3L177.318,153.308L177.229,153.316L177.138,153.323L177.045,153.331L176.951,153.339L176.855,153.346L176.757,153.354L176.657,153.362L176.556,153.37L176.453,153.378L176.348,153.385L176.241,153.393L176.133,153.401L176.023,153.409L175.911,153.417L175.797,153.425L175.681,153.433L175.564,153.441L175.445,153.449L175.324,153.457L175.201,153.465L175.077,153.473L174.951,153.481L174.823,153.49L174.693,153.498L174.561,153.506L174.427,153.514L174.292,153.522L174.155,153.531L174.016,153.539L173.875,153.547L173.732,153.556L173.587,153.564L173.441,153.572L173.292,153.581L173.142,153.589L172.99,153.598L172.836,153.606L172.681,153.615L172.523,153.623L172.364,153.632L172.202,153.64L172.039,153.649L171.874,153.658L171.707,153.666L171.538,153.675L171.367,153.684L171.292,153.688L171.306,153.689L171.364,153.697L171.42,153.705L171.473,153.713L171.523,153.722L171.57,153.73L171.614,153.738L171.655,153.746L171.693,153.754L171.728,153.762L171.76,153.77L171.79,153.778L171.816,153.786L171.839,153.795L171.86,153.803L171.877,153.811L171.892,153.819L171.904,153.827L171.912,153.836L171.918,153.844L171.921,153.852L171.921,153.861L171.918,153.869L171.913,153.877L171.904,153.885L171.892,153.894L171.878,153.902L171.861,153.911L171.84,153.919L171.817,153.927L171.791,153.936L171.762,153.944L171.731,153.953L171.696,153.961L171.659,153.97L171.618,153.978L171.575,153.987L171.529,153.995L171.48,154.004L171.428,154.012L171.374,154.021L171.316,154.029L171.256,154.038L171.193,154.046L171.127,154.055L171.058,154.063L170.987,154.072L170.912,154.081L170.835,154.089L170.755,154.098L170.673,154.107L170.587,154.115L170.499,154.124L170.407,154.133L170.314,154.141L170.217,154.15L170.117,154.159L170.015,154.168L169.91,154.176L169.802,154.185L169.692,154.194L169.578,154.203L169.462,154.211L169.344,154.22L169.222,154.229L169.098,154.238L168.971,154.247L168.841,154.256L168.708,154.265L168.573,154.273L168.435,154.282L168.294,154.291L168.151,154.3L168.005,154.309L167.856,154.318L167.704,154.327L167.55,154.336L167.393,154.345L167.233,154.354L167.071,154.363L166.905,154.372L166.738,154.381L166.567,154.39L166.394,154.399L166.218,154.408L166.039,154.417L165.858,154.427L165.674,154.436L165.487,154.445L165.298,154.454L165.106,154.463L164.911,154.472L164.714,154.481L164.514,154.491L164.311,154.5L164.105,154.509L163.897,154.518L163.687,154.527L163.473,154.537L163.257,154.546L163.039,154.555L162.817,154.565L162.593,154.574L162.367,154.583L162.137,154.593L161.905,154.602L161.671,154.611L161.434,154.621L161.194,154.63L160.951,154.639L160.706,154.649L160.459,154.658L160.208,154.668L159.955,154.677L159.7,154.687L159.442,154.696L159.181,154.705L158.917,154.715L158.651,154.724L158.383,154.734L158.111,154.744L157.838,154.753L157.561,154.763L157.282,154.772L157,154.782L156.716,154.791L156.429,154.801L156.277,154.806L156.29,154.809L156.315,154.813L156.338,154.818L156.359,154.823L156.379,154.828L156.398,154.833L156.414,154.838L156.43,154.843L156.443,154.848L156.456,154.853L156.466,154.858L156.476,154.863L156.483,154.868L156.49,154.873L156.494,154.878L156.497,154.883L156.499,154.888L156.499,154.893L156.498,154.898L156.495,154.903L156.491,154.908L156.486,154.913L156.478,154.918L156.47,154.923L156.46,154.929L156.448,154.934L156.435,154.939L156.421,154.944L156.405,154.949L156.388,154.954L156.369,154.959L156.349,154.964L156.327,154.969L156.304,154.975L156.28,154.98L156.254,154.985L156.227,154.99L156.198,154.995L156.168,155L156.137,155.005L156.104,155.011L156.07,155.016L156.034,155.021L155.997,155.026L155.959,155.031L155.919,155.037L155.878,155.042L155.836,155.047L155.792,155.052L155.747,155.057L155.701,155.063L155.653,155.068L155.604,155.073L155.553,155.078L155.502,155.084L155.448,155.089L155.394,155.094L155.338,155.099L155.281,155.105L155.223,155.11L155.163,155.115L155.103,155.121L155.04,155.126L154.977,155.131L154.912,155.136L154.846,155.142L154.779,155.147L154.71,155.152L154.64,155.158L154.569,155.163L154.497,155.168L154.423,155.174L154.348,155.179L154.272,155.184L154.195,155.19L154.116,155.195L154.036,155.2L153.955,155.206L153.873,155.211L153.789,155.217L153.705,155.222L153.619,155.227L153.531,155.233L153.443,155.238L153.353,155.244L153.262,155.249L153.17,155.254L153.077,155.26L152.983,155.265L152.887,155.271L152.79,155.276L152.692,155.282L152.593,155.287L152.493,155.293L152.391,155.298L152.289,155.303L152.185,155.309L152.08,155.314L151.974,155.32L151.866,155.325L151.758,155.331L151.648,155.336L151.538,155.342L151.426,155.347L151.313,155.353L151.198,155.358L151.083,155.364L150.849,155.375L150.611,155.386L150.368,155.397L150.121,155.408L149.869,155.42L149.613,155.431L149.352,155.442L149.088,155.453L148.819,155.464L148.545,155.476L148.268,155.487L147.986,155.498L147.7,155.51L147.41,155.521L147.116,155.532L146.818,155.544L146.516,155.555L146.21,155.566L145.899,155.578L145.585,155.589L145.267,155.601L144.945,155.612L144.619,155.624L144.289,155.635L143.955,155.647L143.617,155.659L143.276,155.67L142.931,155.682L142.582,155.693L142.229,155.705L141.873,155.717L141.513,155.728L141.15,155.74L140.782,155.752L140.412,155.764L140.038,155.775L139.66,155.787L139.279,155.799L138.894,155.811L138.506,155.823L138.114,155.834L137.719,155.846L137.321,155.858L136.92,155.87L136.515,155.882L136.107,155.894L135.695,155.906L135.281,155.918L134.863,155.93L134.442,155.942L134.018,155.954L133.591,155.966L133.161,155.978L132.728,155.99L132.292,156.002L131.852,156.014L131.41,156.026L130.965,156.038L130.517,156.051L130.066,156.063L129.612,156.075L129.156,156.087L128.696,156.099L128.234,156.111L127.769,156.124L127.302,156.136L126.832,156.148L126.359,156.16L125.883,156.173L125.405,156.185L124.924,156.197L124.441,156.21L123.955,156.222L123.748,156.227L124.364,156.257L125.196,156.297L126.864,156.378L128.535,156.459L130.208,156.541L133.558,156.704L135.233,156.785L136.906,156.866L138.578,156.948L140.247,157.029L141.913,157.109L142.744,157.15L143.574,157.19L144.403,157.23L145.23,157.269L146.056,157.309L146.88,157.349L147.702,157.388L148.523,157.427L149.342,157.466L150.159,157.505L150.973,157.544L151.786,157.582L152.596,157.62L153.403,157.658L154.209,157.696L155.011,157.734L155.811,157.771L156.608,157.808L157.402,157.845L158.193,157.881L158.98,157.918L159.765,157.953L160.546,157.989L161.324,158.024L162.098,158.059L162.868,158.094L163.635,158.128L164.017,158.145L164.398,158.162L164.778,158.179L165.157,158.196L165.535,158.212L165.912,158.229L166.287,158.245L166.662,158.261L167.036,158.278L167.408,158.294L167.78,158.31L168.15,158.326L168.52,158.342L168.888,158.357L169.255,158.373L169.621,158.389L169.985,158.404L170.349,158.419L170.711,158.434L171.072,158.45L171.432,158.465L171.79,158.479L172.148,158.494L172.504,158.509L172.859,158.523L173.212,158.538L173.564,158.552L173.915,158.566L174.265,158.58L174.613,158.594L174.675,158.598L174.699,158.602L174.68,158.607L174.621,158.611L174.532,158.613L174.427,158.614L127.187,158.614L127.08,158.613L126.991,158.61L126.933,158.606L126.916,158.602L126.943,158.597L127.009,158.594L127.117,158.59L127.223,158.586L127.326,158.582L127.427,158.578L127.527,158.574L127.624,158.57L127.72,158.566L127.814,158.562L127.905,158.558L127.995,158.554L128.083,158.55L128.169,158.546L128.253,158.542L128.335,158.538L128.415,158.534L128.493,158.531L128.57,158.527L128.645,158.523L128.717,158.519L128.788,158.515L128.858,158.511L128.925,158.507L128.99,158.503L129.054,158.499L129.116,158.495L129.176,158.492L129.235,158.488L129.292,158.484L129.347,158.48L129.4,158.476L129.451,158.472L129.501,158.468L129.549,158.465L129.596,158.461L129.641,158.457L129.684,158.453L129.725,158.449L129.765,158.445L129.803,158.442L129.84,158.438L129.875,158.434L129.908,158.43L129.94,158.426L129.97,158.423L129.999,158.419L130.026,158.415L130.051,158.411L130.075,158.407L130.098,158.404L130.119,158.4L130.138,158.396L130.156,158.392L130.173,158.389L130.188,158.385L130.201,158.381L130.214,158.377L130.224,158.374L130.233,158.37L130.241,158.366L130.248,158.362L130.253,158.359L130.256,158.355L130.258,158.351L130.259,158.347L130.258,158.344L130.256,158.34L130.253,158.336L130.248,158.332L130.242,158.329L130.235,158.325L130.226,158.321L130.216,158.317L130.205,158.314L130.192,158.31L130.178,158.306L130.162,158.302L130.146,158.299L130.128,158.295L130.109,158.291L130.088,158.287L130.066,158.283L130.043,158.28L130.019,158.276L129.993,158.272L129.966,158.268L129.938,158.265L129.909,158.261L129.878,158.257L129.847,158.253L129.814,158.25L129.78,158.246L129.744,158.242L129.708,158.238L129.67,158.235L129.631,158.231L129.591,158.227L129.549,158.223L129.507,158.219L129.463,158.216L129.418,158.212L129.373,158.208L129.326,158.204L129.277,158.2L129.228,158.197L129.178,158.193L129.126,158.189L129.074,158.185L129.02,158.182L128.965,158.178L128.909,158.174L128.852,158.17L128.794,158.166L128.735,158.163L128.675,158.159L128.614,158.155L128.552,158.151L128.489,158.147L128.425,158.144L128.36,158.14L128.294,158.136L128.227,158.132L128.158,158.128L128.089,158.125L128.02,158.121L127.877,158.113L127.73,158.106L98.398,156.611L76.678,157.186L76.678,158.097L76.694,158.102L76.712,158.107L76.732,158.113L76.752,158.118L76.772,158.123L76.794,158.128L76.816,158.134L76.839,158.139L76.862,158.144L76.886,158.149L76.911,158.154L76.936,158.159L76.962,158.164L76.989,158.169L77.016,158.174L77.045,158.179L77.073,158.184L77.103,158.189L77.133,158.194L77.163,158.199L77.195,158.204L77.227,158.209L77.259,158.213L77.293,158.218L77.327,158.223L77.361,158.228L77.396,158.232L77.432,158.237L77.469,158.242L77.506,158.246L77.544,158.251L77.582,158.255L77.621,158.26L77.661,158.264L77.701,158.269L77.742,158.273L77.783,158.278L77.825,158.282L77.868,158.287L77.911,158.291L77.955,158.295L77.999,158.3L78.044,158.304L78.09,158.308L78.136,158.312L78.183,158.317L78.231,158.321L78.279,158.325L78.327,158.329L78.377,158.333L78.426,158.337L78.477,158.341L78.528,158.346L78.579,158.35L78.631,158.354L78.684,158.358L78.737,158.362L78.791,158.366L78.846,158.369L78.9,158.373L78.956,158.377L79.012,158.381L79.069,158.385L79.126,158.389L79.242,158.396L79.36,158.404L79.481,158.411L79.603,158.419L79.728,158.426L79.855,158.433L79.984,158.44L80.115,158.447L80.248,158.454L80.383,158.461L80.521,158.468L80.66,158.474L80.801,158.481L80.945,158.487L81.09,158.494L81.237,158.5L81.387,158.507L81.538,158.513L81.691,158.519L81.846,158.525L82.003,158.531L82.162,158.537L82.322,158.543L82.485,158.549L82.649,158.555L82.816,158.56L82.983,158.566L83.153,158.571L83.325,158.577L83.498,158.582L83.673,158.588L83.851,158.593L83.928,158.597L83.964,158.601L83.953,158.606L83.897,158.61L83.805,158.613L83.694,158.614L41.605,158.614L41.49,158.613L41.396,158.61L41.342,158.605L41.339,158.6L41.385,158.596L41.474,158.592L41.688,158.587L41.898,158.582L42.105,158.577L42.207,158.574L42.309,158.572L42.41,158.569L42.511,158.567L42.61,158.564L42.709,158.561L42.808,158.558L42.905,158.556L43.002,158.553L43.098,158.55L43.194,158.547L43.289,158.545L43.383,158.542L43.476,158.539L43.569,158.536L43.661,158.533L43.752,158.53L43.842,158.527L43.932,158.524L44.021,158.521L44.11,158.518L44.197,158.515L44.284,158.512L44.37,158.509L44.456,158.506L44.54,158.503L44.624,158.5L44.707,158.497L44.79,158.494L44.871,158.49L44.952,158.487L45.032,158.484L45.112,158.481L45.191,158.478L45.269,158.474L45.346,158.471L45.422,158.468L45.498,158.464L45.573,158.461L45.647,158.457L45.72,158.454L45.793,158.451L45.865,158.447L45.936,158.444L46.006,158.44L46.076,158.437L46.144,158.433L46.212,158.43L46.28,158.426L46.346,158.422L46.412,158.419L46.477,158.415L46.541,158.411L46.604,158.408L46.666,158.404L46.728,158.4L46.789,158.396L46.849,158.393L46.909,158.389L46.967,158.385L47.025,158.381L47.082,158.377L47.138,158.373L47.193,158.369L47.248,158.365L47.301,158.361L47.354,158.357L47.406,158.353L47.458,158.349L47.508,158.345L47.558,158.341L47.607,158.337L47.655,158.333L47.702,158.329L47.748,158.324L47.794,158.32L47.839,158.316L47.882,158.312L47.925,158.307L47.968,158.303L48.009,158.299L48.05,158.294L48.089,158.29L48.128,158.286L48.166,158.281L48.203,158.277L48.24,158.272L48.275,158.268L48.31,158.263L48.343,158.258L48.376,158.254L48.408,158.249L48.439,158.245L48.47,158.24L48.499,158.235L48.528,158.23L48.555,158.226L48.582,158.221L48.608,158.216L48.633,158.211L48.657,158.206L48.681,158.201L48.703,158.197L48.724,158.192L48.745,158.187L48.765,158.182L48.784,158.177L48.801,158.172L48.818,158.166L48.835,158.161L48.85,158.156L48.864,158.151L48.877,158.146L48.89,158.141L48.901,158.135L48.912,158.13L48.922,158.125L48.931,158.119L48.938,158.114L48.945,158.109L48.951,158.103L48.956,158.098L48.965,158.065L48.991,157.972L49.028,157.827L49.051,157.737L49.075,157.638L49.1,157.53L49.126,157.414L49.152,157.291L49.178,157.162L49.204,157.029L49.228,156.892L49.251,156.752L49.272,156.61L49.291,156.469L49.299,156.398L49.306,156.327L49.313,156.257L49.318,156.187L49.323,156.118L49.326,156.05L49.329,155.982L49.33,155.916L49.331,155.85L49.329,155.786L49.327,155.724L49.323,155.663L49.318,155.603L49.312,155.546L49.303,155.49L49.294,155.436L49.282,155.385L49.269,155.336L49.254,155.289L49.237,155.245L49.228,155.224L49.219,155.204L49.209,155.184L49.198,155.165L49.187,155.147L49.176,155.129L49.164,155.113L49.151,155.097L49.138,155.082L49.124,155.068L49.11,155.054L49.095,155.042L49.08,155.03L49.064,155.019L49.048,155.01L49.031,155.001L49.014,154.993L49.005,154.989L48.996,154.986L48.987,154.983L48.978,154.98L48.969,154.978L48.96,154.975L48.925,154.967L48.887,154.959L48.846,154.951L48.803,154.943L48.757,154.936L48.709,154.928L48.659,154.92L48.606,154.913L48.551,154.905L48.494,154.898L48.434,154.891L48.372,154.883L48.308,154.876L48.241,154.869L48.173,154.862L48.102,154.855L48.029,154.849L47.954,154.842L47.876,154.835L47.797,154.829L47.716,154.822L47.632,154.816L47.547,154.81L47.459,154.804L47.37,154.797L47.279,154.791L47.186,154.785L47.09,154.78L46.994,154.774L46.895,154.768L46.794,154.763L46.692,154.757L46.588,154.752L46.482,154.747L46.374,154.741L46.265,154.736L46.154,154.731L46.041,154.726L45.927,154.722L45.811,154.717L45.693,154.712L45.574,154.708L45.454,154.703L45.331,154.699L45.208,154.695L45.083,154.691L44.956,154.687L44.828,154.683L44.699,154.679L44.568,154.675L44.436,154.672L44.303,154.668L44.168,154.665L44.032,154.661L43.895,154.658L43.757,154.655L43.617,154.652L43.476,154.649L43.334,154.646L43.191,154.644L43.046,154.641L42.901,154.638L42.754,154.636L42.607,154.634L42.458,154.632L42.309,154.63L42.158,154.628L42.006,154.626L41.854,154.624L41.7,154.622L41.546,154.621L41.39,154.62L41.234,154.618L41.077,154.617L40.92,154.616L40.761,154.615L40.602,154.614L40.441,154.614L40.281,154.613L40.119,154.612L39.957,154.612L39.794,154.612L39.63,154.612L39.466,154.612L39.301,154.612L39.136,154.612L38.97,154.612L38.804,154.613L38.637,154.613L38.469,154.614L38.301,154.615L38.133,154.616L37.964,154.617L37.795,154.618L37.626,154.619L37.456,154.621L37.286,154.622L37.115,154.624L36.944,154.626L36.773,154.628L36.602,154.63L36.431,154.632L36.259,154.634L36.087,154.637L35.915,154.639L35.743,154.642L35.571,154.645L35.399,154.648L35.226,154.651L35.054,154.654L34.882,154.658L34.709,154.661L34.537,154.665L34.365,154.669L34.193,154.673L34.021,154.677L33.849,154.681L33.677,154.685L33.506,154.69L33.334,154.694L33.163,154.699L32.992,154.704L32.822,154.709L32.651,154.714L32.482,154.72L32.312,154.725L32.143,154.731L31.973,154.736L31.873,154.739L31.761,154.739L31.656,154.737L31.576,154.734L31.535,154.729L31.505,154.722L31.477,154.715L31.45,154.707L31.424,154.7L31.4,154.693L31.377,154.686L31.355,154.678L31.334,154.671L31.315,154.664L31.298,154.657L31.281,154.65L31.267,154.643L31.253,154.636L31.241,154.629L31.231,154.623L31.221,154.616L31.214,154.609L31.208,154.602L31.203,154.596L31.2,154.589L31.198,154.582L31.198,154.576L31.2,154.569L31.203,154.563L31.208,154.557L31.214,154.55L31.222,154.544L31.231,154.538L31.242,154.531L31.255,154.525L31.27,154.519L31.286,154.513L31.304,154.507L31.323,154.501L31.344,154.495L31.367,154.489L31.392,154.483L31.419,154.478L31.447,154.472L31.477,154.466L31.509,154.461L31.543,154.455L31.579,154.45L31.616,154.444L31.656,154.439L31.697,154.433L31.74,154.428L31.785,154.423L31.832,154.418L31.881,154.412L31.932,154.407L31.985,154.402L32.04,154.397L32.097,154.392L32.156,154.388L32.217,154.383L32.28,154.378L32.345,154.373L32.413,154.369L32.482,154.364L32.553,154.36L32.627,154.355L32.702,154.351L32.78,154.347L32.86,154.342L32.942,154.338L33.026,154.334L33.112,154.33L33.201,154.326L33.291,154.322L33.384,154.318L33.479,154.315L33.576,154.311L33.676,154.307L33.777,154.304L33.881,154.3L33.987,154.297L34.095,154.294L34.205,154.29L34.318,154.287L34.433,154.284L34.55,154.281L34.669,154.278L34.791,154.275L34.915,154.272L35.041,154.27L35.169,154.267L35.3,154.264L35.433,154.262L35.568,154.259L35.705,154.257L35.845,154.255L35.987,154.253L36.132,154.251L36.278,154.248L36.427,154.247L36.579,154.245L36.733,154.243L36.889,154.241L37.047,154.239L37.208,154.238L37.372,154.236L37.537,154.235L37.706,154.234L37.876,154.232L38.049,154.231L38.225,154.23L38.403,154.229L38.583,154.228L38.766,154.227L38.952,154.227L39.14,154.226L39.33,154.225L39.523,154.225L39.719,154.224L39.917,154.224L40.118,154.224L40.321,154.223L40.527,154.223L40.736,154.223L40.947,154.223L41.161,154.224L41.378,154.224L41.597,154.224L41.819,154.224L42.044,154.225L42.271,154.226L42.347,154.226L42.378,154.224L42.421,154.221L42.471,154.219L42.528,154.216L42.591,154.212L42.661,154.208L42.737,154.204L42.821,154.2L42.911,154.196L43.007,154.191L43.111,154.186L43.221,154.181L43.339,154.176L43.463,154.17L43.594,154.165L43.732,154.159L43.876,154.153L44.028,154.147L44.187,154.141L44.269,154.138L44.353,154.135L44.439,154.132L44.526,154.128L44.615,154.125L44.706,154.122L44.799,154.119L44.893,154.116L44.989,154.113L45.087,154.109L45.187,154.106L45.289,154.103L45.392,154.1L45.497,154.096L45.604,154.093L45.713,154.09L45.824,154.087L45.936,154.083L46.051,154.08L46.167,154.077L46.285,154.074L46.404,154.071L46.526,154.067L46.649,154.064L46.774,154.061L46.901,154.058L47.03,154.055L47.161,154.052L47.294,154.049L47.428,154.046L47.564,154.043L47.703,154.04L47.843,154.037L47.985,154.034L48.128,154.031L48.274,154.028L48.421,154.025L48.571,154.023L48.722,154.02L48.875,154.017L49.03,154.015L49.187,154.012L49.346,154.009L49.506,154.007L49.669,154.005L49.833,154.002L50,154L50.168,153.998L50.338,153.995L50.51,153.993L50.684,153.991L50.86,153.989L51.038,153.987L51.217,153.985L51.399,153.983L51.582,153.982L51.768,153.98L51.955,153.978L52.144,153.977L52.335,153.975L52.528,153.974L52.723,153.973L52.92,153.972L53.119,153.97L53.32,153.969L53.523,153.968L53.728,153.968L53.934,153.967L54.143,153.966L54.353,153.966L54.566,153.965L54.78,153.965L54.996,153.964L55.215,153.964L55.435,153.964L55.657,153.964L55.881,153.964L56.107,153.964L56.336,153.965L56.565,153.965L57.126,153.966L57.414,153.967L57.707,153.968L58.005,153.969L58.306,153.97L58.612,153.971L58.92,153.972L59.076,153.972L59.233,153.973L59.39,153.974L59.549,153.974L59.708,153.975L59.867,153.976L60.027,153.977L60.188,153.978L60.349,153.979L60.511,153.98L60.674,153.981L60.837,153.982L61,153.983L61.164,153.984L61.328,153.985L61.493,153.987L61.657,153.988L61.822,153.99L61.988,153.991L62.153,153.993L62.319,153.995L62.485,153.996L62.651,153.998L62.817,154L62.983,154.002L63.149,154.004L63.315,154.007L63.481,154.009L63.647,154.011L63.812,154.014L63.978,154.016L64.143,154.019L64.308,154.022L64.473,154.025L64.638,154.028L64.802,154.031L64.965,154.034L65.129,154.037L65.292,154.041L65.454,154.044L65.616,154.048L65.777,154.052L65.938,154.056L66.098,154.06L66.257,154.064L66.416,154.068L66.574,154.073L66.73,154.077L66.809,154.08L66.887,154.082L66.965,154.084L67.043,154.087L67.12,154.089L67.197,154.092L67.274,154.094L67.351,154.097L67.427,154.099L67.503,154.102L67.579,154.105L67.655,154.107L67.73,154.11L67.805,154.113L67.88,154.116L67.955,154.118L68.029,154.121L68.103,154.124L68.177,154.127L68.25,154.13L68.323,154.133L68.396,154.136L68.469,154.139L68.541,154.143L68.613,154.146L68.684,154.149L68.756,154.152L68.827,154.156L68.897,154.159L68.967,154.162L69.037,154.166L69.107,154.169L69.176,154.173L69.245,154.176L69.313,154.18L69.381,154.183L69.449,154.187L69.517,154.191L69.584,154.195L69.65,154.198L69.716,154.202L69.782,154.206L69.848,154.21L69.913,154.214L69.977,154.218L70.041,154.222L70.105,154.226L70.169,154.23L70.232,154.235L70.294,154.239L70.356,154.243L70.418,154.247L70.479,154.252L70.54,154.256L70.6,154.261L70.66,154.265L70.719,154.27L70.778,154.274L70.837,154.279L70.895,154.284L70.953,154.288L71.01,154.293L71.066,154.298L71.122,154.303L71.178,154.308L71.233,154.313L71.288,154.318L71.342,154.323L71.396,154.328L71.449,154.333L71.501,154.339L71.554,154.344L71.605,154.349L71.656,154.354L71.707,154.36L71.757,154.365L71.806,154.371L71.855,154.377L71.904,154.382L71.952,154.388L71.999,154.394L72.046,154.399L72.092,154.405L72.137,154.411L72.182,154.417L72.227,154.423L72.271,154.429L72.314,154.435L72.357,154.441L72.399,154.448L72.441,154.454L72.482,154.46L72.522,154.467L72.562,154.473L72.601,154.479L72.64,154.486L72.678,154.493L72.715,154.499L72.752,154.506L72.788,154.513L72.823,154.52L72.858,154.527L72.892,154.533L72.926,154.54L72.959,154.548L72.991,154.555L73.023,154.562L73.054,154.569L73.084,154.576L73.114,154.584L73.143,154.591L73.171,154.599L73.199,154.606L73.226,154.614L73.252,154.621L73.277,154.629L73.302,154.637L73.326,154.645L73.35,154.653L73.373,154.661L73.395,154.669L73.416,154.677L73.437,154.685L73.457,154.693L73.476,154.701L73.494,154.71L73.512,154.718L73.529,154.726L73.554,154.738L73.582,154.751L73.614,154.764L73.65,154.777L73.69,154.791L73.734,154.805L73.782,154.82L73.833,154.835L73.889,154.851L73.949,154.867L74.012,154.883L74.08,154.9L74.152,154.917L74.189,154.925L74.228,154.934L74.268,154.943L74.308,154.951L74.35,154.96L74.393,154.969L74.436,154.978L74.481,154.987L74.527,154.996L74.574,155.005L74.622,155.014L74.671,155.023L74.721,155.032L74.772,155.041L74.824,155.05L74.878,155.059L74.932,155.069L74.988,155.078L75.044,155.087L75.102,155.096L75.161,155.105L75.221,155.115L75.282,155.124L75.344,155.133L75.407,155.142L75.471,155.151L75.537,155.161L75.603,155.17L75.671,155.179L75.74,155.188L75.81,155.197L75.881,155.206L75.953,155.215L76.026,155.224L76.101,155.233L76.176,155.242L76.253,155.251L76.331,155.26L76.41,155.269L76.49,155.278L76.571,155.286L76.654,155.295L76.737,155.304L76.822,155.312L76.908,155.321L76.995,155.329L77.083,155.337L77.173,155.346L77.263,155.354L77.355,155.362L77.448,155.37L77.542,155.378L77.637,155.385L77.734,155.393L77.831,155.401L77.93,155.408L78.03,155.416L78.131,155.423L78.233,155.43L78.336,155.437L78.441,155.444L78.547,155.451L78.653,155.458L78.761,155.465L78.87,155.471L78.981,155.477L79.092,155.484L79.205,155.49L79.261,155.493L79.318,155.496L79.376,155.499L79.433,155.501L79.491,155.504L79.549,155.507L79.607,155.51L79.666,155.513L79.725,155.515L79.784,155.518L79.844,155.521L79.903,155.523L79.963,155.526L80.024,155.528L80.084,155.531L80.145,155.533L80.206,155.535L80.268,155.538L80.329,155.54L80.391,155.542L80.453,155.545L80.516,155.547L80.579,155.549L80.642,155.551L80.705,155.553L80.768,155.555L80.832,155.557L80.896,155.559L80.961,155.561L81.025,155.563L81.09,155.564L81.155,155.566L81.221,155.568L81.286,155.569L81.352,155.571L81.418,155.573L81.485,155.574L81.551,155.576L81.618,155.577L81.686,155.578L81.753,155.58L81.821,155.581L81.889,155.582L81.957,155.583L82.026,155.584L82.095,155.586L82.164,155.587L82.233,155.588L82.303,155.589L82.373,155.589L82.443,155.59L82.514,155.591L82.585,155.592L82.656,155.592L82.727,155.593L82.799,155.594L82.871,155.594L82.944,155.595L83.017,155.595L83.09,155.595L83.163,155.596L83.237,155.596L83.311,155.596L83.385,155.596L83.46,155.596L83.535,155.597L83.611,155.597L83.687,155.596L83.863,155.596L84.037,155.596L84.21,155.595L84.38,155.595L84.549,155.594L84.716,155.593L84.881,155.592L85.044,155.591L85.206,155.59L85.366,155.589L85.524,155.587L85.68,155.586L85.836,155.584L85.989,155.582L86.141,155.58L86.292,155.579L86.441,155.576L86.589,155.574L86.736,155.572L86.881,155.57L87.025,155.567L87.168,155.564L87.309,155.562L87.45,155.559L87.589,155.556L87.727,155.553L87.865,155.55L88.001,155.546L88.136,155.543L88.27,155.54L88.404,155.536L88.536,155.532L88.668,155.529L88.799,155.525L88.929,155.521L89.058,155.517L89.186,155.512L89.314,155.508L89.441,155.504L89.568,155.499L89.694,155.494L89.819,155.49L89.944,155.485L90.069,155.48L90.192,155.475L90.316,155.469L90.439,155.464L90.561,155.459L90.684,155.453L90.805,155.448L90.927,155.442L91.048,155.436L91.169,155.43L91.29,155.424L91.411,155.418L91.531,155.412L91.651,155.406L91.771,155.399L91.891,155.393L92.011,155.386L92.131,155.379L92.251,155.373L92.371,155.366L92.491,155.359L92.611,155.352L92.731,155.344L92.851,155.337L92.972,155.33L93.093,155.322L93.213,155.315L93.335,155.307L93.456,155.299L93.578,155.291L93.7,155.283L93.822,155.275L93.945,155.267L94.068,155.259L94.192,155.25L94.441,155.233L94.692,155.216L94.945,155.198L95.201,155.18L95.46,155.162L95.722,155.143L95.988,155.124L96.257,155.104L96.529,155.084L97.088,155.043L97.664,155.001L98.26,154.958L98.567,154.936L98.879,154.913L99.197,154.89L99.521,154.867L99.852,154.843L100.19,154.82L100.534,154.795L100.886,154.771L101.245,154.746L101.612,154.721L101.66,154.718L101.706,154.715L101.751,154.711L101.794,154.708L101.835,154.705L101.875,154.701L101.914,154.698L101.95,154.695L101.986,154.692L102.02,154.688L102.053,154.685L102.084,154.682L102.114,154.678L102.142,154.675L102.169,154.672L102.195,154.668L102.22,154.665L102.243,154.662L102.265,154.659L102.286,154.655L102.306,154.652L102.324,154.649L102.342,154.645L102.358,154.642L102.373,154.639L102.387,154.635L102.399,154.632L102.411,154.629L102.422,154.625L102.431,154.622L102.44,154.619L102.447,154.615L102.454,154.612L102.46,154.609L102.464,154.605L102.468,154.602L102.471,154.598L102.473,154.595L102.474,154.592L102.474,154.588L102.473,154.585L102.472,154.581L102.47,154.578L102.467,154.575L102.463,154.571L102.458,154.568L102.447,154.561L102.433,154.554L102.416,154.547L102.396,154.54L102.375,154.533L102.351,154.526L102.325,154.519L102.297,154.512L102.268,154.505L102.236,154.498L102.204,154.491L102.17,154.484L102.135,154.477L102.099,154.47L102.062,154.463L101.986,154.449L101.91,154.434L101.833,154.42L101.757,154.405L101.72,154.398L101.684,154.39L101.649,154.383L101.615,154.376L101.582,154.368L101.551,154.361L101.521,154.353L101.493,154.346L101.468,154.338L101.444,154.331L101.422,154.323L101.403,154.316L101.387,154.308L101.373,154.301L101.368,154.297L101.363,154.293L101.359,154.289L101.356,154.285L101.353,154.282L101.351,154.278L101.351,154.274L101.351,154.27L101.352,154.266L101.354,154.262L101.357,154.259L101.361,154.255L101.366,154.251L101.372,154.247L101.379,154.243L101.387,154.239L101.397,154.235L101.407,154.231L101.419,154.227L101.431,154.224L101.445,154.22L101.46,154.216L101.477,154.212L101.494,154.208L101.513,154.204L101.533,154.2L101.554,154.196L101.577,154.192L101.601,154.188L101.627,154.184L101.653,154.18L101.682,154.176L101.711,154.172L101.743,154.168L101.775,154.164L101.809,154.16L101.845,154.156L101.882,154.152L101.921,154.149L101.961,154.145L102.003,154.141L102.046,154.137L102.091,154.133L102.138,154.129L102.186,154.125L102.236,154.121L102.288,154.117L102.341,154.113L102.396,154.109L102.453,154.105L102.512,154.101L102.572,154.097L102.634,154.093L102.698,154.089L102.764,154.085L102.832,154.081L102.902,154.077L102.973,154.073L103.046,154.069L103.122,154.064L103.199,154.06L103.278,154.056L103.36,154.052L103.443,154.048L103.528,154.044L103.615,154.04L103.705,154.036L103.796,154.032L103.89,154.028L103.985,154.024L104.083,154.02L104.183,154.016L104.285,154.012L104.389,154.008L104.496,154.004L104.604,154L104.715,153.996L104.829,153.992L104.944,153.988L105.062,153.984L105.182,153.98L105.304,153.976L105.429,153.972L105.556,153.968L105.686,153.964L105.818,153.959L105.952,153.955L106.089,153.951L106.229,153.947L106.37,153.943L106.515,153.939L106.662,153.935L106.811,153.931L106.963,153.927L107.118,153.923L107.275,153.919L107.435,153.915L107.598,153.911L107.763,153.906L107.931,153.902L108.102,153.898L108.275,153.894L108.451,153.89L108.63,153.886L108.812,153.882L108.996,153.878L109.184,153.874L109.374,153.869L109.567,153.865L109.763,153.861L109.962,153.857L110.164,153.853L110.369,153.849L110.577,153.845L110.788,153.84L111.002,153.836L111.219,153.832L111.439,153.828L111.662,153.824L111.888,153.82L112.117,153.815L112.35,153.811L112.585,153.807L112.824,153.803L113.066,153.799L113.311,153.794L113.56,153.79L113.811,153.786L114.066,153.782L114.325,153.778L114.586,153.773L114.851,153.769L115.12,153.765L115.392,153.761L115.667,153.756L115.945,153.752L116.644,153.742L117.341,153.731L118.035,153.72L118.727,153.709L119.417,153.699L120.104,153.688L120.789,153.677L121.471,153.666L122.151,153.655L122.829,153.643L123.504,153.632L124.176,153.621L124.847,153.61L125.514,153.598L126.18,153.587L126.843,153.575L127.503,153.564L128.162,153.552L128.817,153.54L129.47,153.529L130.121,153.517L130.77,153.505L131.415,153.493L132.059,153.481L132.7,153.469L133.338,153.457L133.974,153.445L134.608,153.433L135.239,153.42L135.868,153.408L136.494,153.396L137.118,153.383L137.739,153.371L138.357,153.358L138.974,153.345L139.587,153.333L140.198,153.32L140.807,153.307L141.413,153.294L142.017,153.281L142.618,153.268L143.217,153.255L143.813,153.242L144.407,153.229L144.998,153.216L145.586,153.202L146.172,153.189L146.756,153.176L147.337,153.162L147.915,153.148L148.491,153.135L149.064,153.121L149.635,153.107L150.203,153.094L150.769,153.08L151.332,153.066L151.892,153.052L152.45,153.038L153.006,153.024L153.558,153.01L154.109,152.995L154.656,152.981L155.201,152.967L155.744,152.952L156.284,152.938L156.821,152.923L157.356,152.909L157.888,152.894L158.417,152.879L158.944,152.864L159.468,152.849L159.99,152.835L160.509,152.82L161.025,152.804L161.539,152.789L162.05,152.774L162.559,152.759L163.065,152.744L163.568,152.728L164.069,152.713L164.567,152.697L165.062,152.682L165.554,152.666L166.045,152.65L166.532,152.635L167.017,152.619L167.499,152.603L167.978,152.587L168.455,152.571L168.929,152.555L169.4,152.539L169.869,152.522L170.335,152.506L170.798,152.49L171.259,152.473L171.717,152.457L172.172,152.44L172.624,152.424L173.074,152.407L173.521,152.39L173.966,152.374L174.407,152.357L174.846,152.34L175.283,152.323L175.716,152.306L175.932,152.297L176.147,152.289L176.361,152.28L176.575,152.271L176.788,152.263L177,152.254L177.212,152.245L177.423,152.237L177.633,152.228L177.843,152.219L178.052,152.211L178.26,152.202L178.468,152.193L178.674,152.184L178.881,152.176L179.086,152.167L179.291,152.158L179.495,152.149L179.698,152.14L179.901,152.131L180.103,152.122L180.305,152.114L180.505,152.105L180.705,152.096L180.905,152.087L181.103,152.078L181.301,152.069L181.498,152.06L181.695,152.051L181.891,152.042L182.086,152.033L182.28,152.024L182.474,152.014L182.667,152.005L182.859,151.996L183.051,151.987L183.242,151.978L183.432,151.969L183.622,151.96L183.811,151.95L183.999,151.941L184.186,151.932L184.373,151.923L184.559,151.913L184.745,151.904L184.93,151.895L185.01,151.892L185.11,151.891L185.213,151.891ZM184.786,151.938L184.598,151.947L184.41,151.956L184.221,151.965L184.031,151.975L183.84,151.984L183.649,151.993L183.457,152.002L183.264,152.012L183.071,152.021L182.877,152.03L182.682,152.039L182.487,152.048L182.291,152.057L182.094,152.066L181.896,152.075L181.698,152.085L181.499,152.094L181.3,152.103L181.099,152.112L180.898,152.121L180.697,152.13L180.494,152.138L180.291,152.147L180.088,152.156L179.883,152.165L179.678,152.174L179.472,152.183L179.266,152.192L179.059,152.201L178.851,152.209L178.642,152.218L178.433,152.227L178.223,152.236L178.012,152.245L177.801,152.253L177.589,152.262L177.377,152.271L177.163,152.279L176.949,152.288L176.734,152.297L176.519,152.305L176.303,152.314L176.086,152.323L175.651,152.34L175.212,152.357L174.771,152.374L174.328,152.391L173.881,152.408L173.432,152.424L172.98,152.441L172.526,152.458L172.068,152.475L171.609,152.491L171.146,152.508L170.681,152.524L170.213,152.54L169.742,152.557L169.269,152.573L168.793,152.589L168.314,152.605L167.832,152.621L167.348,152.637L166.862,152.653L166.372,152.669L165.88,152.685L165.386,152.7L164.888,152.716L164.389,152.731L163.886,152.747L163.381,152.762L162.873,152.778L162.362,152.793L161.849,152.808L161.334,152.823L160.815,152.839L160.294,152.854L159.771,152.869L159.245,152.884L158.716,152.898L158.184,152.913L157.65,152.928L157.114,152.943L156.575,152.957L156.033,152.972L155.489,152.986L154.942,153.001L154.392,153.015L153.84,153.029L153.285,153.043L152.728,153.058L152.168,153.072L151.606,153.086L151.041,153.1L150.474,153.114L149.904,153.128L149.331,153.141L148.756,153.155L148.178,153.169L147.598,153.182L147.015,153.196L146.43,153.209L145.842,153.223L145.252,153.236L144.659,153.249L144.064,153.263L143.466,153.276L142.865,153.289L142.262,153.302L141.657,153.315L141.049,153.328L140.439,153.341L139.826,153.353L139.21,153.366L138.593,153.379L137.972,153.391L137.349,153.404L136.724,153.416L136.096,153.429L135.466,153.441L134.833,153.454L134.198,153.466L133.56,153.478L132.92,153.49L132.278,153.502L131.633,153.514L130.985,153.526L130.335,153.538L129.683,153.55L129.028,153.562L128.371,153.573L127.711,153.585L127.049,153.597L126.384,153.608L125.717,153.62L125.048,153.631L124.376,153.642L123.702,153.654L123.025,153.665L122.346,153.676L121.665,153.687L120.981,153.698L120.295,153.709L119.606,153.72L118.915,153.731L118.222,153.742L117.526,153.753L116.828,153.763L116.128,153.774L115.851,153.778L115.577,153.782L115.308,153.787L115.041,153.791L114.778,153.795L114.518,153.799L114.262,153.803L114.009,153.808L113.759,153.812L113.513,153.816L113.27,153.82L113.03,153.824L112.793,153.828L112.56,153.832L112.33,153.837L112.103,153.841L111.879,153.845L111.658,153.849L111.441,153.853L111.226,153.857L111.015,153.861L110.807,153.865L110.601,153.87L110.399,153.874L110.2,153.878L110.003,153.882L109.81,153.886L109.62,153.89L109.432,153.894L109.248,153.898L109.066,153.902L108.887,153.906L108.711,153.91L108.538,153.914L108.368,153.918L108.2,153.922L108.035,153.926L107.873,153.93L107.714,153.934L107.557,153.938L107.403,153.942L107.252,153.946L107.103,153.95L106.957,153.954L106.814,153.958L106.673,153.962L106.534,153.966L106.399,153.97L106.265,153.974L106.135,153.978L106.006,153.982L105.88,153.986L105.757,153.99L105.636,153.994L105.518,153.998L105.401,154.002L105.288,154.006L105.176,154.01L105.067,154.014L104.96,154.017L104.855,154.021L104.753,154.025L104.653,154.029L104.555,154.033L104.459,154.037L104.366,154.041L104.274,154.045L104.185,154.048L104.098,154.052L104.013,154.056L103.93,154.06L103.849,154.064L103.77,154.068L103.693,154.071L103.618,154.075L103.544,154.079L103.473,154.083L103.404,154.087L103.337,154.09L103.271,154.094L103.208,154.098L103.146,154.102L103.086,154.105L103.027,154.109L102.971,154.113L102.916,154.117L102.863,154.12L102.812,154.124L102.762,154.128L102.714,154.132L102.667,154.135L102.622,154.139L102.579,154.143L102.537,154.146L102.497,154.15L102.458,154.154L102.421,154.157L102.385,154.161L102.351,154.165L102.318,154.169L102.287,154.172L102.257,154.176L102.228,154.18L102.2,154.183L102.174,154.187L102.15,154.19L102.126,154.194L102.104,154.198L102.083,154.201L102.063,154.205L102.045,154.209L102.027,154.212L102.011,154.216L101.996,154.22L101.982,154.223L101.969,154.227L101.957,154.23L101.947,154.234L101.937,154.238L101.928,154.241L101.921,154.245L101.914,154.249L101.908,154.252L101.904,154.256L101.9,154.259L101.897,154.263L101.895,154.267L101.894,154.27L101.894,154.274L101.895,154.277L101.896,154.281L101.898,154.285L101.902,154.288L101.905,154.292L101.91,154.296L101.915,154.299L101.928,154.306L101.944,154.314L101.962,154.321L101.983,154.328L102.005,154.335L102.03,154.342L102.057,154.35L102.086,154.357L102.117,154.364L102.148,154.371L102.182,154.379L102.216,154.386L102.252,154.393L102.288,154.4L102.363,154.415L102.44,154.429L102.516,154.443L102.592,154.458L102.63,154.465L102.666,154.472L102.702,154.48L102.736,154.487L102.77,154.494L102.802,154.501L102.832,154.508L102.861,154.516L102.888,154.523L102.913,154.53L102.935,154.537L102.956,154.545L102.973,154.552L102.988,154.559L103,154.566L103.005,154.57L103.009,154.574L103.013,154.577L103.015,154.581L103.017,154.585L103.017,154.588L103.017,154.592L103.016,154.595L103.014,154.599L103.011,154.603L103.007,154.606L103.002,154.61L102.996,154.614L102.989,154.617L102.98,154.621L102.971,154.625L102.96,154.628L102.949,154.632L102.936,154.636L102.922,154.639L102.907,154.643L102.89,154.646L102.873,154.65L102.854,154.654L102.834,154.657L102.812,154.661L102.789,154.665L102.765,154.668L102.739,154.672L102.712,154.676L102.684,154.679L102.654,154.683L102.622,154.686L102.589,154.69L102.555,154.694L102.519,154.697L102.482,154.701L102.443,154.705L102.402,154.708L102.36,154.712L102.316,154.715L102.271,154.719L102.224,154.723L102.175,154.726L102.125,154.73L102.073,154.733L101.707,154.758L101.349,154.783L100.998,154.807L100.655,154.832L100.318,154.855L99.988,154.879L99.664,154.902L99.347,154.925L99.035,154.947L98.729,154.969L98.133,155.013L97.557,155.055L96.999,155.096L96.726,155.116L96.456,155.135L96.19,155.155L95.927,155.173L95.667,155.192L95.41,155.21L95.155,155.228L94.903,155.245L94.652,155.263L94.527,155.271L94.403,155.279L94.279,155.288L94.156,155.296L94.033,155.304L93.91,155.312L93.787,155.32L93.664,155.327L93.542,155.335L93.42,155.343L93.297,155.35L93.175,155.358L93.053,155.365L92.931,155.372L92.809,155.379L92.687,155.386L92.565,155.393L92.443,155.4L92.32,155.407L92.198,155.414L92.075,155.42L91.952,155.427L91.828,155.433L91.705,155.439L91.581,155.445L91.456,155.451L91.331,155.457L91.206,155.463L91.08,155.469L90.954,155.475L90.827,155.48L90.7,155.486L90.572,155.491L90.443,155.496L90.314,155.502L90.184,155.507L90.053,155.512L89.921,155.517L89.789,155.521L89.656,155.526L89.522,155.53L89.387,155.535L89.251,155.539L89.114,155.543L88.976,155.548L88.838,155.552L88.698,155.555L88.557,155.559L88.415,155.563L88.272,155.567L88.127,155.57L87.982,155.573L87.835,155.577L87.687,155.58L87.538,155.583L87.387,155.586L87.235,155.588L87.082,155.591L86.928,155.594L86.772,155.596L86.614,155.598L86.456,155.601L86.296,155.603L86.134,155.605L85.971,155.606L85.806,155.608L85.64,155.61L85.472,155.611L85.302,155.613L85.131,155.614L84.959,155.615L84.784,155.616L84.608,155.617L84.431,155.618L84.251,155.618L84.07,155.619L83.887,155.619L83.702,155.62L83.617,155.62L83.532,155.62L83.447,155.62L83.363,155.619L83.279,155.619L83.196,155.619L83.113,155.619L83.03,155.618L82.948,155.618L82.865,155.617L82.784,155.617L82.702,155.616L82.622,155.616L82.541,155.615L82.461,155.614L82.381,155.613L82.302,155.613L82.223,155.612L82.144,155.611L82.066,155.61L81.988,155.608L81.911,155.607L81.834,155.606L81.757,155.605L81.681,155.604L81.605,155.602L81.53,155.601L81.455,155.599L81.38,155.598L81.306,155.596L81.232,155.595L81.159,155.593L81.086,155.591L81.013,155.589L80.941,155.588L80.869,155.586L80.798,155.584L80.727,155.582L80.657,155.58L80.587,155.578L80.517,155.576L80.447,155.574L80.379,155.571L80.31,155.569L80.242,155.567L80.174,155.565L80.107,155.562L80.04,155.56L79.973,155.558L79.907,155.555L79.841,155.553L79.776,155.55L79.711,155.547L79.646,155.545L79.582,155.542L79.518,155.539L79.455,155.537L79.392,155.534L79.329,155.531L79.266,155.528L79.204,155.525L79.143,155.522L79.081,155.519L79.021,155.516L78.96,155.513L78.9,155.51L78.84,155.507L78.78,155.504L78.663,155.498L78.546,155.491L78.431,155.485L78.317,155.478L78.205,155.471L78.094,155.464L77.985,155.457L77.876,155.45L77.77,155.442L77.664,155.435L77.56,155.427L77.457,155.42L77.356,155.412L77.255,155.404L77.156,155.396L77.059,155.388L76.962,155.38L76.867,155.372L76.773,155.364L76.681,155.355L76.589,155.347L76.499,155.338L76.41,155.33L76.323,155.321L76.236,155.313L76.151,155.304L76.067,155.295L75.985,155.286L75.903,155.277L75.823,155.268L75.744,155.259L75.666,155.25L75.589,155.241L75.513,155.232L75.439,155.223L75.366,155.214L75.294,155.204L75.223,155.195L75.153,155.186L75.085,155.177L75.017,155.167L74.951,155.158L74.886,155.149L74.822,155.139L74.759,155.13L74.697,155.121L74.637,155.111L74.577,155.102L74.519,155.093L74.462,155.083L74.406,155.074L74.351,155.065L74.297,155.056L74.244,155.046L74.192,155.037L74.142,155.028L74.092,155.019L74.044,155.01L73.996,155.001L73.95,154.992L73.905,154.983L73.861,154.974L73.818,154.965L73.775,154.956L73.735,154.947L73.695,154.938L73.656,154.93L73.618,154.921L73.545,154.904L73.477,154.887L73.412,154.871L73.352,154.855L73.296,154.839L73.244,154.823L73.195,154.808L73.151,154.794L73.111,154.78L73.074,154.766L73.042,154.753L73.013,154.74L72.988,154.728L72.971,154.72L72.953,154.712L72.935,154.703L72.916,154.695L72.897,154.687L72.876,154.679L72.855,154.671L72.833,154.663L72.811,154.655L72.788,154.648L72.764,154.64L72.739,154.632L72.714,154.625L72.688,154.617L72.662,154.61L72.635,154.602L72.607,154.595L72.578,154.588L72.549,154.58L72.519,154.573L72.489,154.566L72.458,154.559L72.426,154.552L72.393,154.545L72.36,154.538L72.327,154.531L72.293,154.525L72.258,154.518L72.222,154.511L72.186,154.505L72.15,154.498L72.112,154.492L72.075,154.485L72.036,154.479L71.997,154.473L71.958,154.466L71.918,154.46L71.877,154.454L71.836,154.448L71.794,154.442L71.751,154.436L71.708,154.43L71.665,154.424L71.621,154.418L71.576,154.412L71.531,154.407L71.486,154.401L71.439,154.396L71.393,154.39L71.346,154.385L71.298,154.379L71.25,154.374L71.201,154.368L71.152,154.363L71.102,154.358L71.052,154.353L71.001,154.348L70.95,154.342L70.899,154.337L70.846,154.332L70.794,154.327L70.741,154.323L70.687,154.318L70.633,154.313L70.579,154.308L70.524,154.304L70.469,154.299L70.413,154.294L70.357,154.29L70.3,154.285L70.243,154.281L70.186,154.276L70.128,154.272L70.07,154.268L70.011,154.264L69.952,154.259L69.893,154.255L69.833,154.251L69.773,154.247L69.712,154.243L69.651,154.239L69.589,154.235L69.528,154.231L69.465,154.227L69.403,154.223L69.34,154.22L69.277,154.216L69.213,154.212L69.149,154.208L69.085,154.205L69.02,154.201L68.955,154.198L68.89,154.194L68.824,154.191L68.758,154.187L68.692,154.184L68.625,154.181L68.558,154.178L68.491,154.174L68.424,154.171L68.356,154.168L68.288,154.165L68.219,154.162L68.15,154.159L68.081,154.156L68.012,154.153L67.942,154.15L67.873,154.147L67.802,154.144L67.732,154.141L67.661,154.138L67.59,154.136L67.519,154.133L67.448,154.13L67.376,154.128L67.304,154.125L67.232,154.122L67.159,154.12L67.086,154.117L67.014,154.115L66.94,154.112L66.867,154.11L66.793,154.108L66.719,154.105L66.645,154.103L66.571,154.101L66.497,154.098L66.422,154.096L66.272,154.092L66.121,154.088L65.97,154.084L65.818,154.08L65.665,154.076L65.511,154.072L65.357,154.068L65.202,154.065L65.047,154.062L64.891,154.058L64.735,154.055L64.578,154.052L64.42,154.049L64.263,154.046L64.104,154.043L63.946,154.041L63.787,154.038L63.628,154.036L63.469,154.033L63.309,154.031L63.149,154.029L62.989,154.027L62.829,154.024L62.669,154.023L62.508,154.021L62.348,154.019L62.187,154.017L62.027,154.015L61.867,154.014L61.706,154.012L61.546,154.011L61.386,154.009L61.226,154.008L61.067,154.007L60.907,154.006L60.748,154.004L60.589,154.003L60.431,154.002L60.273,154.001L60.115,154L59.958,154L59.801,153.999L59.645,153.998L59.489,153.997L59.334,153.997L59.18,153.996L59.026,153.995L58.873,153.995L58.568,153.994L58.267,153.993L57.969,153.992L57.675,153.991L57.384,153.99L57.098,153.99L56.539,153.988L56.314,153.988L56.092,153.988L55.872,153.987L55.653,153.987L55.437,153.987L55.223,153.987L55.011,153.987L54.801,153.988L54.592,153.988L54.386,153.989L54.181,153.989L53.979,153.99L53.778,153.991L53.58,153.991L53.383,153.992L53.188,153.993L52.995,153.994L52.804,153.996L52.615,153.997L52.428,153.998L52.243,154L52.059,154.001L51.878,154.003L51.698,154.004L51.521,154.006L51.345,154.008L51.171,154.01L50.999,154.011L50.829,154.013L50.66,154.015L50.494,154.018L50.329,154.02L50.166,154.022L50.006,154.024L49.847,154.026L49.689,154.029L49.534,154.031L49.38,154.034L49.229,154.036L49.079,154.039L48.931,154.041L48.785,154.044L48.64,154.047L48.498,154.049L48.357,154.052L48.218,154.055L48.081,154.058L47.945,154.06L47.812,154.063L47.68,154.066L47.55,154.069L47.422,154.072L47.296,154.075L47.171,154.078L47.048,154.081L46.927,154.084L46.808,154.087L46.691,154.09L46.575,154.093L46.461,154.096L46.349,154.099L46.238,154.103L46.13,154.106L46.023,154.109L45.918,154.112L45.814,154.115L45.713,154.118L45.613,154.121L45.515,154.124L45.418,154.128L45.323,154.131L45.231,154.134L45.139,154.137L45.05,154.14L44.962,154.143L44.876,154.146L44.792,154.149L44.709,154.152L44.628,154.155L44.549,154.158L44.396,154.164L44.249,154.17L44.11,154.176L43.977,154.181L43.851,154.187L43.731,154.192L43.619,154.197L43.513,154.202L43.413,154.206L43.321,154.211L43.235,154.215L43.155,154.219L43.082,154.223L43.016,154.227L42.956,154.23L42.903,154.233L42.856,154.235L42.816,154.238L42.755,154.241L42.719,154.243L42.707,154.244L42.642,154.247L42.557,154.249L42.463,154.249L42.236,154.249L42.014,154.248L41.793,154.248L41.576,154.247L41.362,154.247L41.15,154.247L40.941,154.246L40.735,154.246L40.531,154.246L40.331,154.247L40.133,154.247L39.937,154.247L39.745,154.247L39.555,154.248L39.368,154.248L39.183,154.249L39.001,154.25L38.822,154.25L38.646,154.251L38.472,154.252L38.3,154.253L38.132,154.254L37.965,154.255L37.802,154.256L37.641,154.258L37.482,154.259L37.326,154.26L37.173,154.262L37.022,154.263L36.874,154.265L36.728,154.267L36.584,154.269L36.443,154.27L36.305,154.272L36.169,154.274L36.035,154.276L35.904,154.279L35.775,154.281L35.649,154.283L35.525,154.285L35.403,154.288L35.283,154.29L35.166,154.293L35.051,154.295L34.939,154.298L34.828,154.301L34.72,154.304L34.614,154.307L34.511,154.31L34.409,154.313L34.31,154.316L34.213,154.319L34.118,154.322L34.025,154.325L33.934,154.328L33.845,154.332L33.758,154.335L33.674,154.339L33.591,154.342L33.51,154.346L33.431,154.35L33.355,154.353L33.28,154.357L33.207,154.361L33.136,154.365L33.067,154.369L33,154.373L32.935,154.377L32.871,154.381L32.81,154.385L32.75,154.39L32.692,154.394L32.636,154.398L32.582,154.403L32.53,154.407L32.479,154.412L32.43,154.417L32.383,154.421L32.337,154.426L32.294,154.431L32.252,154.436L32.212,154.441L32.173,154.446L32.136,154.451L32.101,154.456L32.068,154.461L32.036,154.466L32.006,154.472L31.978,154.477L31.951,154.482L31.926,154.488L31.903,154.493L31.881,154.499L31.861,154.504L31.842,154.51L31.825,154.516L31.81,154.522L31.796,154.527L31.784,154.533L31.773,154.539L31.764,154.545L31.756,154.551L31.75,154.557L31.746,154.564L31.743,154.57L31.742,154.576L31.742,154.582L31.743,154.589L31.746,154.595L31.751,154.601L31.757,154.608L31.764,154.615L31.773,154.621L31.783,154.628L31.795,154.634L31.808,154.641L31.822,154.648L31.838,154.655L31.855,154.662L31.874,154.669L31.894,154.676L31.915,154.683L31.938,154.69L31.962,154.697L31.987,154.704L31.996,154.706L32.157,154.701L32.332,154.696L32.509,154.69L32.686,154.685L32.863,154.68L33.04,154.675L33.218,154.67L33.396,154.665L33.575,154.661L33.754,154.657L33.933,154.652L34.112,154.648L34.291,154.644L34.471,154.641L34.65,154.637L34.83,154.633L35.01,154.63L35.19,154.627L35.37,154.624L35.55,154.621L35.73,154.618L35.91,154.615L36.09,154.612L36.27,154.61L36.449,154.608L36.629,154.606L36.808,154.604L36.988,154.602L37.167,154.6L37.345,154.598L37.524,154.597L37.702,154.595L37.88,154.594L38.058,154.593L38.235,154.592L38.412,154.591L38.588,154.59L38.764,154.59L38.939,154.589L39.115,154.589L39.289,154.589L39.463,154.589L39.636,154.589L39.809,154.589L39.981,154.589L40.153,154.589L40.324,154.59L40.494,154.591L40.663,154.591L40.832,154.592L41,154.593L41.167,154.594L41.333,154.596L41.498,154.597L41.663,154.598L41.826,154.6L41.989,154.602L42.151,154.604L42.311,154.605L42.471,154.608L42.63,154.61L42.787,154.612L42.944,154.614L43.099,154.617L43.253,154.62L43.407,154.622L43.558,154.625L43.709,154.628L43.858,154.631L44.007,154.634L44.153,154.638L44.299,154.641L44.443,154.645L44.586,154.648L44.727,154.652L44.867,154.656L45.006,154.66L45.143,154.664L45.278,154.668L45.412,154.672L45.545,154.677L45.676,154.681L45.805,154.686L45.932,154.69L46.058,154.695L46.183,154.7L46.305,154.705L46.426,154.71L46.545,154.715L46.663,154.721L46.778,154.726L46.892,154.731L47.004,154.737L47.114,154.743L47.222,154.748L47.328,154.754L47.432,154.76L47.534,154.766L47.634,154.772L47.733,154.779L47.829,154.785L47.923,154.791L48.015,154.798L48.105,154.805L48.192,154.811L48.278,154.818L48.361,154.825L48.442,154.832L48.521,154.839L48.598,154.846L48.672,154.853L48.744,154.86L48.813,154.868L48.881,154.875L48.946,154.883L49.008,154.89L49.068,154.898L49.126,154.906L49.181,154.914L49.233,154.922L49.284,154.93L49.331,154.938L49.376,154.946L49.418,154.954L49.458,154.963L49.495,154.971L49.506,154.974L49.516,154.977L49.526,154.98L49.536,154.983L49.545,154.987L49.555,154.991L49.573,154.999L49.59,155.008L49.606,155.018L49.622,155.029L49.638,155.041L49.653,155.053L49.667,155.067L49.681,155.081L49.694,155.096L49.706,155.112L49.719,155.129L49.73,155.146L49.741,155.164L49.752,155.183L49.762,155.203L49.771,155.224L49.78,155.245L49.797,155.289L49.812,155.336L49.825,155.385L49.837,155.436L49.847,155.49L49.855,155.546L49.861,155.603L49.867,155.663L49.87,155.724L49.873,155.786L49.874,155.85L49.874,155.916L49.872,155.982L49.87,156.05L49.866,156.118L49.861,156.187L49.856,156.257L49.849,156.327L49.842,156.398L49.834,156.469L49.815,156.611L49.794,156.752L49.772,156.892L49.747,157.029L49.722,157.162L49.695,157.291L49.669,157.414L49.643,157.53L49.618,157.638L49.594,157.738L49.572,157.827L49.534,157.972L49.509,158.065L49.499,158.099L49.494,158.104L49.488,158.11L49.481,158.115L49.473,158.121L49.464,158.127L49.453,158.132L49.443,158.137L49.431,158.143L49.418,158.148L49.404,158.154L49.389,158.159L49.373,158.164L49.357,158.17L49.339,158.175L49.32,158.18L49.301,158.185L49.28,158.191L49.259,158.196L49.237,158.201L49.213,158.206L49.189,158.211L49.164,158.216L49.138,158.221L49.111,158.226L49.083,158.231L49.054,158.236L49.025,158.241L48.994,158.246L48.963,158.251L48.93,158.256L48.897,158.26L48.862,158.265L48.827,158.27L48.791,158.275L48.754,158.28L48.716,158.284L48.678,158.289L48.638,158.294L48.597,158.298L48.556,158.303L48.514,158.307L48.47,158.312L48.426,158.316L48.381,158.321L48.335,158.325L48.289,158.33L48.241,158.334L48.193,158.339L48.143,158.343L48.093,158.347L48.042,158.352L47.99,158.356L47.937,158.36L47.884,158.364L47.829,158.369L47.774,158.373L47.718,158.377L47.661,158.381L47.603,158.385L47.544,158.389L47.485,158.393L47.424,158.397L47.363,158.401L47.301,158.405L47.238,158.409L47.175,158.413L47.11,158.417L47.045,158.421L46.979,158.425L46.912,158.429L46.844,158.433L46.776,158.436L46.706,158.44L46.636,158.444L46.565,158.448L46.493,158.451L46.421,158.455L46.348,158.459L46.273,158.462L46.199,158.466L46.123,158.47L46.047,158.473L45.969,158.477L45.891,158.48L45.813,158.484L45.733,158.487L45.653,158.491L45.572,158.494L45.49,158.497L45.407,158.501L45.324,158.504L45.24,158.507L45.155,158.511L45.07,158.514L44.983,158.517L44.896,158.521L44.808,158.524L44.72,158.527L44.631,158.53L44.541,158.533L44.45,158.536L44.359,158.539L44.266,158.543L44.173,158.546L44.08,158.549L43.986,158.552L43.891,158.555L43.795,158.558L43.698,158.561L43.601,158.564L43.503,158.566L43.405,158.569L43.306,158.572L43.206,158.575L43.105,158.578L43.004,158.581L42.902,158.583L42.799,158.586L42.696,158.589L42.619,158.591L82.858,158.591L82.824,158.59L82.65,158.584L82.477,158.578L82.307,158.572L82.138,158.567L81.97,158.561L81.805,158.555L81.641,158.548L81.48,158.542L81.32,158.536L81.162,158.53L81.006,158.523L80.852,158.517L80.7,158.51L80.55,158.503L80.402,158.497L80.256,158.49L80.112,158.483L79.97,158.476L79.83,158.469L79.692,158.462L79.556,158.454L79.423,158.447L79.292,158.44L79.163,158.432L79.036,158.425L78.911,158.417L78.789,158.409L78.669,158.401L78.609,158.397L78.551,158.393L78.493,158.389L78.435,158.385L78.378,158.381L78.322,158.377L78.266,158.373L78.211,158.369L78.157,158.365L78.103,158.361L78.049,158.356L77.997,158.352L77.944,158.348L77.893,158.344L77.842,158.34L77.792,158.335L77.742,158.331L77.693,158.327L77.644,158.322L77.596,158.318L77.549,158.313L77.503,158.309L77.457,158.304L77.411,158.3L77.366,158.295L77.322,158.291L77.279,158.286L77.236,158.282L77.194,158.277L77.152,158.273L77.111,158.268L77.071,158.263L77.031,158.258L76.993,158.254L76.954,158.249L76.917,158.244L76.88,158.239L76.843,158.235L76.808,158.23L76.773,158.225L76.738,158.22L76.705,158.215L76.672,158.21L76.639,158.205L76.608,158.2L76.577,158.195L76.546,158.19L76.517,158.185L76.488,158.18L76.46,158.175L76.432,158.169L76.405,158.164L76.379,158.159L76.354,158.154L76.329,158.148L76.305,158.143L76.281,158.138L76.259,158.133L76.237,158.127L76.216,158.122L76.195,158.116L76.175,158.111L76.156,158.105L76.138,158.1L76.135,158.098L76.135,157.18L76.151,157.176L76.195,157.173L76.263,157.17L98.312,156.586L98.402,156.584L98.498,156.584L98.59,156.586L98.664,156.588L128.148,158.091L128.299,158.099L128.446,158.107L128.518,158.11L128.589,158.114L128.66,158.118L128.729,158.122L128.798,158.126L128.865,158.13L128.931,158.134L128.997,158.138L129.061,158.142L129.125,158.146L129.187,158.15L129.249,158.154L129.309,158.158L129.368,158.162L129.427,158.166L129.484,158.17L129.54,158.174L129.595,158.177L129.649,158.181L129.702,158.185L129.754,158.189L129.805,158.193L129.854,158.197L129.902,158.201L129.95,158.205L129.996,158.209L130.041,158.213L130.084,158.217L130.127,158.221L130.168,158.225L130.209,158.229L130.248,158.233L130.285,158.237L130.322,158.241L130.357,158.245L130.391,158.249L130.424,158.254L130.455,158.258L130.485,158.262L130.514,158.266L130.542,158.27L130.568,158.274L130.593,158.278L130.616,158.282L130.639,158.286L130.659,158.29L130.679,158.294L130.697,158.298L130.714,158.302L130.729,158.306L130.743,158.31L130.755,158.314L130.766,158.319L130.776,158.323L130.784,158.327L130.791,158.331L130.796,158.335L130.799,158.339L130.802,158.343L130.802,158.347L130.801,158.351L130.799,158.356L130.795,158.36L130.79,158.364L130.783,158.368L130.774,158.372L130.764,158.376L130.752,158.38L130.739,158.384L130.724,158.389L130.708,158.393L130.69,158.397L130.67,158.401L130.649,158.405L130.626,158.409L130.601,158.413L130.575,158.417L130.547,158.422L130.517,158.426L130.486,158.43L130.453,158.434L130.418,158.438L130.382,158.442L130.344,158.446L130.305,158.451L130.263,158.455L130.22,158.459L130.175,158.463L130.129,158.467L130.08,158.471L130.03,158.475L129.979,158.479L129.925,158.484L129.87,158.488L129.813,158.492L129.754,158.496L129.694,158.5L129.631,158.504L129.567,158.508L129.501,158.512L129.434,158.517L129.364,158.521L129.293,158.525L129.22,158.529L129.145,158.533L129.068,158.537L128.99,158.541L128.909,158.545L128.827,158.549L128.743,158.554L128.657,158.558L128.569,158.562L128.479,158.566L128.387,158.57L128.294,158.574L128.198,158.578L128.101,158.582L128.001,158.587L127.9,158.591L127.893,158.591L173.742,158.591L173.542,158.583L173.19,158.569L172.837,158.554L172.482,158.54L172.127,158.525L171.77,158.511L171.412,158.496L171.052,158.481L170.692,158.466L170.33,158.451L169.967,158.436L169.603,158.42L169.237,158.405L168.871,158.389L168.503,158.374L168.134,158.358L167.764,158.342L167.393,158.326L167.021,158.31L166.648,158.294L166.273,158.278L165.898,158.261L165.522,158.245L165.144,158.228L164.766,158.212L164.386,158.195L164.006,158.178L163.624,158.161L163.242,158.144L162.474,158.11L161.703,158.075L160.928,158.04L160.149,158.005L159.367,157.969L158.582,157.933L157.794,157.897L157.002,157.86L156.207,157.824L155.41,157.787L154.609,157.749L153.806,157.712L153.001,157.674L152.192,157.636L151.382,157.598L150.569,157.559L149.754,157.52L148.937,157.482L148.117,157.443L147.296,157.403L146.474,157.364L145.649,157.324L144.823,157.285L143.995,157.245L143.166,157.205L142.336,157.165L141.505,157.125L139.839,157.044L138.169,156.963L136.497,156.882L134.824,156.8L133.149,156.719L129.799,156.556L128.126,156.474L126.456,156.393L124.788,156.313L123.956,156.272L123.124,156.232L123.067,156.228L123.06,156.223L123.103,156.218L123.189,156.215L123.677,156.202L124.162,156.19L124.644,156.178L125.124,156.165L125.602,156.153L126.076,156.141L126.548,156.129L127.017,156.116L127.484,156.104L127.948,156.092L128.409,156.08L128.867,156.067L129.323,156.055L129.776,156.043L130.226,156.031L130.672,156.019L131.116,156.007L131.558,155.995L131.996,155.983L132.431,155.971L132.863,155.959L133.292,155.947L133.718,155.935L134.14,155.923L134.56,155.911L134.976,155.899L135.39,155.887L135.8,155.875L136.206,155.863L136.61,155.851L137.01,155.839L137.407,155.827L137.8,155.816L138.19,155.804L138.577,155.792L138.96,155.78L139.339,155.768L139.715,155.757L140.088,155.745L140.457,155.733L140.822,155.722L141.184,155.71L141.542,155.698L141.897,155.687L142.247,155.675L142.594,155.664L142.938,155.652L143.277,155.641L143.613,155.629L143.944,155.618L144.272,155.606L144.596,155.595L144.916,155.583L145.232,155.572L145.544,155.56L145.853,155.549L146.156,155.538L146.456,155.526L146.752,155.515L147.044,155.504L147.331,155.493L147.615,155.481L147.894,155.47L148.169,155.459L148.439,155.448L148.706,155.437L148.968,155.426L149.225,155.415L149.478,155.403L149.727,155.392L149.971,155.381L150.211,155.37L150.447,155.36L150.678,155.349L150.791,155.343L150.904,155.338L151.015,155.332L151.126,155.327L151.235,155.321L151.343,155.316L151.449,155.311L151.555,155.305L151.66,155.3L151.763,155.294L151.865,155.289L151.966,155.284L152.066,155.278L152.164,155.273L152.262,155.268L152.358,155.262L152.453,155.257L152.547,155.251L152.639,155.246L152.731,155.241L152.821,155.236L152.91,155.23L152.998,155.225L153.084,155.22L153.17,155.214L153.254,155.209L153.337,155.204L153.419,155.199L153.499,155.193L153.578,155.188L153.656,155.183L153.733,155.178L153.808,155.172L153.883,155.167L153.956,155.162L154.027,155.157L154.098,155.152L154.167,155.146L154.235,155.141L154.302,155.136L154.367,155.131L154.431,155.126L154.494,155.121L154.555,155.115L154.616,155.11L154.675,155.105L154.732,155.1L154.789,155.095L154.844,155.09L154.898,155.085L154.95,155.08L155.001,155.075L155.051,155.07L155.1,155.064L155.147,155.059L155.193,155.054L155.238,155.049L155.281,155.044L155.323,155.039L155.364,155.034L155.403,155.029L155.441,155.024L155.478,155.019L155.513,155.014L155.547,155.009L155.58,155.004L155.611,155L155.641,154.995L155.67,154.99L155.697,154.985L155.723,154.98L155.748,154.975L155.771,154.97L155.793,154.965L155.813,154.96L155.833,154.955L155.85,154.951L155.867,154.946L155.882,154.941L155.895,154.936L155.908,154.931L155.919,154.926L155.928,154.922L155.936,154.917L155.943,154.912L155.948,154.907L155.952,154.903L155.955,154.898L155.956,154.893L155.956,154.888L155.954,154.884L155.951,154.879L155.947,154.874L155.941,154.869L155.934,154.865L155.925,154.86L155.915,154.855L155.904,154.851L155.891,154.846L155.876,154.841L155.86,154.837L155.843,154.832L155.825,154.827L155.804,154.823L155.783,154.818L155.76,154.814L155.735,154.809L155.709,154.804L155.704,154.8L155.738,154.796L155.806,154.792L156.094,154.783L156.379,154.773L156.662,154.764L156.942,154.754L157.219,154.745L157.494,154.735L157.766,154.726L158.036,154.716L158.303,154.707L158.567,154.697L158.829,154.688L159.088,154.678L159.344,154.669L159.598,154.66L159.849,154.65L160.097,154.641L160.343,154.632L160.587,154.622L160.827,154.613L161.065,154.604L161.3,154.594L161.533,154.585L161.763,154.576L161.99,154.567L162.215,154.557L162.437,154.548L162.656,154.539L162.873,154.53L163.086,154.521L163.298,154.511L163.506,154.502L163.712,154.493L163.915,154.484L164.116,154.475L164.314,154.466L164.509,154.457L164.702,154.448L164.891,154.439L165.078,154.43L165.263,154.421L165.445,154.412L165.624,154.403L165.8,154.394L165.973,154.385L166.144,154.376L166.312,154.367L166.478,154.358L166.641,154.349L166.801,154.34L166.958,154.331L167.113,154.322L167.264,154.314L167.414,154.305L167.56,154.296L167.704,154.287L167.845,154.278L167.983,154.27L168.118,154.261L168.251,154.252L168.381,154.243L168.508,154.235L168.633,154.226L168.754,154.217L168.874,154.209L168.99,154.2L169.103,154.192L169.214,154.183L169.322,154.174L169.427,154.166L169.53,154.157L169.63,154.149L169.727,154.14L169.821,154.132L169.912,154.123L170.001,154.115L170.087,154.106L170.17,154.098L170.251,154.089L170.329,154.081L170.403,154.073L170.476,154.064L170.545,154.056L170.612,154.048L170.675,154.039L170.737,154.031L170.795,154.023L170.85,154.014L170.903,154.006L170.953,153.998L171,153.99L171.045,153.981L171.086,153.973L171.125,153.965L171.161,153.957L171.195,153.949L171.225,153.941L171.253,153.933L171.278,153.924L171.3,153.916L171.32,153.908L171.337,153.9L171.35,153.892L171.362,153.884L171.37,153.876L171.375,153.868L171.378,153.86L171.378,153.852L171.375,153.844L171.37,153.837L171.361,153.829L171.35,153.821L171.336,153.813L171.319,153.805L171.3,153.797L171.277,153.789L171.252,153.782L171.224,153.774L171.193,153.766L171.159,153.758L171.123,153.75L171.084,153.743L171.041,153.735L170.996,153.727L170.949,153.72L170.898,153.712L170.845,153.704L170.788,153.696L170.728,153.689L170.715,153.685L170.732,153.681L170.778,153.678L170.95,153.669L171.12,153.66L171.287,153.652L171.453,153.643L171.616,153.635L171.778,153.626L171.938,153.618L172.096,153.609L172.252,153.601L172.407,153.592L172.559,153.584L172.71,153.575L172.858,153.567L173.005,153.559L173.15,153.55L173.293,153.542L173.434,153.534L173.574,153.526L173.711,153.517L173.847,153.509L173.981,153.501L174.113,153.493L174.243,153.485L174.372,153.477L174.498,153.469L174.623,153.461L174.746,153.453L174.867,153.445L174.986,153.437L175.104,153.429L175.22,153.421L175.333,153.413L175.446,153.405L175.556,153.397L175.665,153.389L175.771,153.382L175.876,153.374L175.98,153.366L176.081,153.358L176.181,153.351L176.279,153.343L176.375,153.336L176.47,153.328L176.563,153.32L176.654,153.313L176.743,153.305L176.83,153.298L176.916,153.29L177,153.283L177.083,153.275L177.164,153.268L177.243,153.261L177.32,153.253L177.395,153.246L177.469,153.239L177.541,153.231L177.612,153.224L177.681,153.217L177.748,153.21L177.814,153.202L177.877,153.195L177.939,153.188L178,153.181L178.059,153.174L178.116,153.167L178.172,153.16L178.225,153.153L178.278,153.146L178.328,153.139L178.377,153.132L178.425,153.125L178.471,153.118L178.515,153.111L178.557,153.104L178.598,153.097L178.637,153.091L178.675,153.084L178.711,153.077L178.746,153.07L178.779,153.064L178.81,153.057L178.84,153.05L178.868,153.044L178.895,153.037L178.92,153.03L178.944,153.024L178.966,153.017L178.986,153.011L179.005,153.004L179.022,152.998L179.038,152.991L179.053,152.985L179.065,152.978L179.077,152.972L179.086,152.965L179.095,152.959L179.101,152.953L179.107,152.946L179.11,152.94L179.113,152.934L179.113,152.928L179.113,152.921L179.11,152.915L179.107,152.909L179.101,152.903L179.095,152.897L179.087,152.89L179.077,152.884L179.066,152.878L179.054,152.872L179.04,152.866L179.024,152.86L179.007,152.854L178.989,152.848L178.97,152.842L178.948,152.836L178.926,152.83L178.902,152.824L178.877,152.818L178.85,152.813L178.822,152.807L178.792,152.801L178.761,152.795L178.729,152.789L178.695,152.784L178.66,152.778L178.623,152.772L178.585,152.766L178.575,152.763L178.592,152.759L178.634,152.756L178.76,152.749L178.886,152.742L179.009,152.736L179.132,152.729L179.253,152.722L179.373,152.715L179.491,152.709L179.608,152.702L179.724,152.695L179.839,152.688L179.952,152.682L180.064,152.675L180.174,152.668L180.283,152.662L180.391,152.655L180.498,152.648L180.603,152.641L180.707,152.635L180.809,152.628L180.911,152.621L181.011,152.614L181.11,152.608L181.207,152.601L181.303,152.594L181.398,152.588L181.492,152.581L181.584,152.574L181.675,152.567L181.765,152.561L181.854,152.554L181.941,152.547L182.027,152.541L182.112,152.534L182.195,152.527L182.277,152.521L182.358,152.514L182.438,152.507L182.517,152.5L182.594,152.494L182.67,152.487L182.745,152.48L182.818,152.474L182.891,152.467L182.962,152.46L183.032,152.454L183.1,152.447L183.168,152.44L183.234,152.434L183.299,152.427L183.363,152.42L183.426,152.414L183.487,152.407L183.547,152.4L183.606,152.394L183.664,152.387L183.721,152.38L183.776,152.374L183.831,152.367L183.884,152.36L183.936,152.354L183.986,152.347L184.036,152.34L184.084,152.334L184.132,152.327L184.178,152.32L184.223,152.314L184.267,152.307L184.309,152.3L184.351,152.294L184.391,152.287L184.43,152.281L184.468,152.274L184.505,152.267L184.541,152.261L184.576,152.254L184.609,152.247L184.642,152.241L184.673,152.234L184.703,152.227L184.732,152.221L184.76,152.214L184.787,152.208L184.813,152.201L184.837,152.194L184.861,152.188L184.883,152.181L184.904,152.174L184.925,152.168L184.944,152.161L184.962,152.155L184.979,152.148L184.995,152.141L185.009,152.135L185.023,152.128L185.036,152.122L185.047,152.115L185.058,152.108L185.067,152.102L185.075,152.095L185.083,152.088L185.089,152.082L185.094,152.075L185.098,152.069L185.101,152.062L185.104,152.055L185.105,152.049L185.104,152.042L185.103,152.036L185.101,152.029L185.098,152.022L185.094,152.016L185.089,152.009L185.083,152.003L185.075,151.996L185.067,151.989L185.058,151.983L185.048,151.976L185.036,151.97L185.024,151.963L185.011,151.956L184.996,151.95L184.981,151.943L184.965,151.937L184.947,151.93L184.946,151.93L184.786,151.938Z"/>
        </g>
    </g>
</svg>
