<?xml version="1.0" encoding="UTF-8" standalone="no"?>
<!DOCTYPE svg PUBLIC "-//W3C//DTD SVG 1.1//EN" "http://www.w3.org/Graphics/SVG/1.1/DTD/svg11.dtd">
<svg width="100%" height="100%" viewBox="0 0 3508 2481" version="1.1" xmlns="http://www.w3.org/2000/svg" xmlns:xlink="http://www.w3.org/1999/xlink" xml:space="preserve" xmlns:serif="http://www.serif.com/" style="fill-rule:evenodd;clip-rule:evenodd;stroke-linecap:round;stroke-linejoin:round;stroke-miterlimit:1.41421;">
    <g id="Outline" transform="matrix(1.01582e-16,-1.6436,1.65896,1.00642e-16,410.536,2124.86)">
        <path d="M1019.74,122.75L1019.74,1333.07C1019.74,1336.85 1018.22,1340.47 1015.53,1343.14C1012.83,1345.81 1009.18,1347.31 1005.37,1347.31C1005.37,1347.31 1005.37,1347.31 1005.37,1347.31L1005.37,1390.03C1005.37,1393.81 1003.85,1397.43 1001.16,1400.1C998.46,1402.77 994.805,1404.27 990.993,1404.27C990.993,1404.27 990.993,1404.27 990.993,1404.27L696.364,1404.27C696.364,1404.27 696.364,1430.12 696.364,1446.99C696.364,1454.85 689.93,1461.23 681.992,1461.23C681.992,1461.23 681.992,1461.23 681.992,1461.23L380.177,1461.23C380.177,1461.23 380.177,1461.23 380.177,1461.23C372.24,1461.23 365.805,1454.85 365.805,1446.99C365.805,1430.12 365.805,1404.27 365.805,1404.27L329.875,1404.27C329.875,1404.27 329.875,1404.27 329.875,1404.27C250.5,1404.27 186.154,1340.52 186.154,1261.88C186.154,1261.88 186.154,1261.88 186.154,1261.88L186.154,165.467C186.154,165.467 186.154,165.467 186.154,165.467C186.154,86.827 250.5,23.076 329.875,23.076L365.805,23.076C365.805,23.076 365.805,-2.771 365.805,-19.641C365.805,-27.505 372.24,-33.88 380.177,-33.88L681.992,-33.88C689.93,-33.88 696.364,-27.505 696.364,-19.641C696.364,-2.771 696.364,23.076 696.364,23.076L990.993,23.076C994.805,23.076 998.46,24.576 1001.16,27.247C1003.85,29.917 1005.37,33.539 1005.37,37.315L1005.37,108.511C1005.37,108.511 1005.37,108.511 1005.37,108.511C1009.18,108.511 1012.83,110.011 1015.53,112.681C1018.22,115.352 1019.74,118.974 1019.74,122.75C1019.74,122.75 1019.74,122.75 1019.74,122.75Z" style="fill:none;stroke:black;stroke-width:0.61px;stroke-miterlimit:1.5;"/>
    </g>
    <g id="Streifen">
        <g id="path4833" transform="matrix(1.01582e-16,-1.6436,1.65896,1.00642e-16,267.327,1955.25)">
            <path d="M836.122,224.643L836.122,706.872" style="fill:none;stroke:black;stroke-width:18.17px;"/>
        </g>
        <g id="path4835" transform="matrix(1.01582e-16,-1.6436,1.65896,1.00642e-16,267.327,1955.25)">
            <path d="M836.122,887.709L836.122,1369.94" style="fill:none;stroke:black;stroke-width:18.17px;"/>
        </g>
        <g id="path4837" transform="matrix(1.01582e-16,-1.6436,1.65896,1.00642e-16,267.327,1955.25)">
            <path d="M763.111,224.643L763.111,706.872" style="fill:none;stroke:black;stroke-width:18.17px;"/>
        </g>
        <g id="path4839" transform="matrix(1.01582e-16,-1.6436,1.65896,1.00642e-16,267.327,1955.25)">
            <path d="M763.111,887.709L763.111,1369.94" style="fill:none;stroke:black;stroke-width:18.17px;"/>
        </g>
        <g id="path4841" transform="matrix(1.01582e-16,-1.6436,1.65896,1.00642e-16,267.327,1955.25)">
            <path d="M690.101,224.643L690.101,706.872" style="fill:none;stroke:black;stroke-width:18.17px;"/>
        </g>
        <g id="path4843" transform="matrix(1.01582e-16,-1.6436,1.65896,1.00642e-16,267.327,1955.25)">
            <path d="M690.101,887.709L690.101,1369.94" style="fill:none;stroke:black;stroke-width:18.17px;"/>
        </g>
        <g id="path4845" transform="matrix(1.01582e-16,-1.6436,1.65896,1.00642e-16,267.327,1955.25)">
            <path d="M617.091,224.643L617.091,706.872" style="fill:none;stroke:black;stroke-width:18.17px;"/>
        </g>
        <g id="path4847" transform="matrix(1.01582e-16,-1.6436,1.65896,1.00642e-16,267.327,1955.25)">
            <path d="M617.091,887.709L617.091,1369.94" style="fill:none;stroke:black;stroke-width:18.17px;"/>
        </g>
        <g id="path4851" transform="matrix(1.01582e-16,-1.6436,1.65896,1.00642e-16,267.327,1955.25)">
            <path d="M537.996,224.643L537.996,706.872" style="fill:none;stroke:black;stroke-width:18.17px;"/>
        </g>
        <g id="path4853" transform="matrix(1.01582e-16,-1.6436,1.65896,1.00642e-16,267.327,1955.25)">
            <path d="M537.996,887.709L537.996,1369.94" style="fill:none;stroke:black;stroke-width:18.17px;"/>
        </g>
        <g id="path4855" transform="matrix(1.01582e-16,-1.6436,1.65896,1.00642e-16,267.327,1955.25)">
            <path d="M464.985,224.643L464.985,706.872" style="fill:none;stroke:black;stroke-width:18.17px;"/>
        </g>
        <g id="path4857" transform="matrix(1.01582e-16,-1.6436,1.65896,1.00642e-16,267.327,1955.25)">
            <path d="M464.985,887.709L464.985,1369.94" style="fill:none;stroke:black;stroke-width:18.17px;"/>
        </g>
        <g id="path4859" transform="matrix(1.01582e-16,-1.6436,1.65896,1.00642e-16,267.327,1955.25)">
            <path d="M391.975,224.643L391.975,706.872" style="fill:none;stroke:black;stroke-width:18.17px;"/>
        </g>
        <g id="path4861" transform="matrix(1.01582e-16,-1.6436,1.65896,1.00642e-16,267.327,1955.25)">
            <path d="M391.975,887.709L391.975,1369.94" style="fill:none;stroke:black;stroke-width:18.17px;"/>
        </g>
    </g>
    <g transform="matrix(1.65896,3.46945e-18,0.000504871,1.65895,1006.34,1292)">
        <g id="ELEKTRA">
            <g id="Elektra">
                <g id="A">
                    <path d="M508.458,205.161L511.938,196.811L521.204,177.545L530.329,196.878L533.579,205.161C536.312,208.472 537.525,211.78 535.645,215.083L551.366,215.083C548.029,210.789 543.157,200.727 539.152,192.577C535.299,184.739 531.114,176.582 529.58,170.072L512.601,170.072C513.301,170.362 509.177,180.041 503.421,191.342C499.007,200.007 494.765,209.724 490.865,215.083L506.278,215.083C505.117,212.51 505.625,209.288 508.458,205.161Z" style="stroke:black;stroke-width:0.3px;stroke-miterlimit:1.5;"/>
                </g>
                <g id="R">
                    <path id="R1" serif:id="R" d="M473.196,195.81C473.196,195.81 478.955,200.763 480.374,204.974C481.676,208.84 488.292,215.083 488.292,215.083L468.76,215.083C478.141,208.824 458.561,196.562 458.561,196.562L449.357,196.562C449.357,196.562 449.357,207.541 449.357,210.628C449.357,212.56 453.063,215.083 453.063,215.083L434.984,215.083C434.984,215.083 438.277,212.474 438.277,210.628C438.277,205.324 438.353,189.716 438.353,189.716L466.684,189.82C475.8,189.853 474.671,177.063 466.731,177.034L438.4,176.93C438.4,176.93 438.277,175.58 438.277,175.448C438.277,173.353 434.984,170.094 434.984,170.094C434.984,170.094 467.186,170.045 473.196,170.094C480.311,170.152 483.707,175.785 483.752,182.436C483.808,190.863 479.617,192.793 473.196,195.81Z" style="stroke:black;stroke-width:0.3px;stroke-miterlimit:1.5;"/>
                </g>
                <path id="T" d="M384.054,170.094C384.622,173.775 383.099,177.497 380.75,181.233C388.068,177.702 394.814,176.334 400.965,177.217C400.965,177.217 400.965,204.325 400.965,210.697C400.965,213.184 397.725,215.083 397.725,215.083L414.772,215.083C414.772,215.083 412.001,213.296 411.896,210.697C411.642,204.473 411.866,177.259 411.896,177.217C419.024,175.918 425.362,177.747 431.282,181.233C428.327,177.275 427.288,173.562 428.167,170.094L384.054,170.094Z" style="stroke:black;stroke-width:0.3px;stroke-miterlimit:1.5;"/>
                <path id="L" d="M231.13,174.823C231.13,181.123 231.13,207.892 231.13,207.892C231.13,207.892 243.862,207.892 249.148,207.892C253.796,207.892 261.973,202.418 261.973,202.418C258.739,207.392 256.507,211.909 257.213,215.083L216.492,215.083C216.492,215.083 220.356,212.377 220.356,210.338C220.356,203.579 220.356,181.579 220.356,174.823C220.356,172.787 216.492,170.094 216.492,170.094L234.617,170.094C234.617,170.094 231.13,172.865 231.13,174.823Z" style="stroke:black;stroke-width:0.3px;stroke-miterlimit:1.5;"/>
                <path id="E" d="M306.025,178.167C308.864,178.167 316.483,183.274 316.846,183.238C313.948,178.42 311.789,173.802 312.982,170.094L264.463,170.094C266.393,171.001 269.127,173.025 269.127,175.373C269.127,182.108 269.127,203.305 269.127,209.923C269.127,212.123 267.35,213.969 265.014,215.083L312.982,215.083C310.977,211.415 316.846,202.374 316.846,202.374C316.846,202.374 309.088,207.803 304.633,207.803C298.437,207.803 279.96,207.803 279.96,207.803L279.96,195.622L298.883,195.622C301.838,193.973 303.915,191.36 305.241,187.92L279.96,187.92L279.96,178.167C279.96,178.167 299.878,178.167 306.025,178.167Z" style="stroke:black;stroke-width:0.3px;stroke-miterlimit:1.5;"/>
                <path id="E1" serif:id="E" d="M199.144,178.167C201.983,178.167 209.601,183.274 209.964,183.238C207.066,178.42 204.908,173.802 206.1,170.094L157.582,170.094C159.511,171.001 162.246,173.025 162.246,175.373C162.246,182.108 162.246,203.305 162.246,209.923C162.246,212.123 160.469,213.969 158.132,215.083L206.1,215.083C204.095,211.415 206.474,206.99 209.964,202.374C206.775,204.642 202.207,207.803 197.752,207.803C191.555,207.803 173.079,207.803 173.079,207.803L173.079,195.622L192.001,195.622C194.956,193.973 197.033,191.36 198.359,187.92L173.079,187.92L173.079,178.167C173.079,178.167 192.996,178.167 199.144,178.167Z" style="stroke:black;stroke-width:0.3px;stroke-miterlimit:1.5;"/>
                <g id="Elektra1" serif:id="Elektra" transform="matrix(0.43298,4.33681e-19,-2.1684e-19,0.43298,307.473,146.738)">
                    <path d="M49.018,147.326C49.018,153.603 44.945,156.012 41.544,157.848L84.884,157.848C80.002,156.096 76.536,153.494 76.536,147.326L76.536,124.475L98.926,110.765L129.172,147.326C133.029,151.988 130.311,156.184 124.371,157.848L174.817,157.848C172.535,157.48 168.477,152.805 163.901,147.326L124.371,101.761C141.635,90.596 156.936,79.4 155.93,67.932C169.344,57.407 173.379,48.643 170.556,41.166C177.405,33.973 180.2,27.211 179.6,20.81C184.013,14.159 186.27,7.245 185.795,0C161.522,28.858 125.178,40.489 112.02,45.742C99.184,50.866 103.114,52.398 102.176,64.4C101.53,72.66 89.786,87.344 84.884,87.395C77.567,87.471 72.323,75.511 72.971,67.932C74.889,45.497 48.343,44.881 42.994,54.833C34.336,55.809 30.111,58.72 32.228,64.4C42.148,62.364 49.018,64.018 49.018,72.462L49.018,147.326Z" style="stroke:black;stroke-width:0.7px;stroke-miterlimit:1.5;"/>
                </g>
            </g>
        </g>
    </g>
</svg>
